<svg width="24" height="18" viewBox="0 0 24 18" fill="none" xmlns="http://www.w3.org/2000/svg">
<path d="M5.46667 18V8.51847L0 4.31189V15.9968C0 17.3323 0.666667 18 2 18" fill="#4285F4"/>
<path d="M5.20001 8.45165L12 13.593L18.8 8.45165V1.90808L12 7.04946L5.20001 1.90808" fill="#EA4335"/>
<path d="M18.5333 18V8.51847L24 4.31189V15.9968C24 17.3323 23.3333 18 22 18" fill="#34A853"/>
<path d="M0 4.44544L5.46667 8.65202V2.10845L3.46667 0.572714C1.66667 -0.82948 0 0.572714 0 2.30876" fill="#C5221F"/>
<path d="M24 4.44544L18.5333 8.65202V2.10845L20.5333 0.572714C22.3333 -0.82948 24 0.572714 24 2.30876" fill="#FBBC04"/>
</svg>
