<svg width="24" height="24" viewBox="0 0 24 24" fill="none" xmlns="http://www.w3.org/2000/svg">
<path d="M18.8571 0H5.14286C2.30254 0 0 2.30254 0 5.14286V18.8571C0 21.6975 2.30254 24 5.14286 24H18.8571C21.6975 24 24 21.6975 24 18.8571V5.14286C24 2.30254 21.6975 0 18.8571 0Z" fill="url(#paint0_radial_23_65)"/>
<path d="M18.8571 0H5.14286C2.30254 0 0 2.30254 0 5.14286V18.8571C0 21.6975 2.30254 24 5.14286 24H18.8571C21.6975 24 24 21.6975 24 18.8571V5.14286C24 2.30254 21.6975 0 18.8571 0Z" fill="url(#paint1_radial_23_65)"/>
<path d="M18.8571 0H5.14286C2.30254 0 0 2.30254 0 5.14286V18.8571C0 21.6975 2.30254 24 5.14286 24H18.8571C21.6975 24 24 21.6975 24 18.8571V5.14286C24 2.30254 21.6975 0 18.8571 0Z" fill="url(#paint2_radial_23_65)"/>
<path d="M18 7.28571C18 7.99577 17.4244 8.57143 16.7143 8.57143C16.0042 8.57143 15.4286 7.99577 15.4286 7.28571C15.4286 6.57563 16.0042 6 16.7143 6C17.4244 6 18 6.57563 18 7.28571Z" fill="white"/>
<path fill-rule="evenodd" clip-rule="evenodd" d="M12 16.2857C14.3669 16.2857 16.2857 14.3669 16.2857 11.9999C16.2857 9.63303 14.3669 7.71423 12 7.71423C9.63309 7.71423 7.71429 9.63303 7.71429 11.9999C7.71429 14.3669 9.63309 16.2857 12 16.2857ZM12 14.5714C13.4202 14.5714 14.5714 13.4201 14.5714 11.9999C14.5714 10.5797 13.4202 9.42852 12 9.42852C10.5798 9.42852 9.42858 10.5797 9.42858 11.9999C9.42858 13.4201 10.5798 14.5714 12 14.5714Z" fill="white"/>
<path fill-rule="evenodd" clip-rule="evenodd" d="M3.42859 11.6572C3.42859 8.7769 3.42859 7.33673 3.98913 6.23664C4.48219 5.26894 5.26894 4.48219 6.23664 3.98913C7.33673 3.42859 8.7769 3.42859 11.6572 3.42859H12.3429C15.2231 3.42859 16.6633 3.42859 17.7634 3.98913C18.7311 4.48219 19.5178 5.26894 20.0109 6.23664C20.5714 7.33673 20.5714 8.7769 20.5714 11.6572V12.3429C20.5714 15.2231 20.5714 16.6633 20.0109 17.7634C19.5178 18.7311 18.7311 19.5178 17.7634 20.0109C16.6633 20.5714 15.2231 20.5714 12.3429 20.5714H11.6572C8.7769 20.5714 7.33673 20.5714 6.23664 20.0109C5.26894 19.5178 4.48219 18.7311 3.98913 17.7634C3.42859 16.6633 3.42859 15.2231 3.42859 12.3429V11.6572ZM11.6572 5.14287H12.3429C13.8113 5.14287 14.8095 5.14421 15.5811 5.20725C16.3327 5.26865 16.717 5.37995 16.9852 5.51656C17.6302 5.84528 18.1547 6.36978 18.4834 7.01487C18.6201 7.28299 18.7314 7.66733 18.7928 8.41896C18.8558 9.19056 18.8572 10.1887 18.8572 11.6572V12.3429C18.8572 13.8113 18.8558 14.8095 18.7928 15.5811C18.7314 16.3327 18.6201 16.717 18.4834 16.9852C18.1547 17.6302 17.6302 18.1547 16.9852 18.4834C16.717 18.6201 16.3327 18.7314 15.5811 18.7928C14.8095 18.8558 13.8113 18.8572 12.3429 18.8572H11.6572C10.1887 18.8572 9.19056 18.8558 8.41896 18.7928C7.66733 18.7314 7.28299 18.6201 7.01487 18.4834C6.36978 18.1547 5.84528 17.6302 5.51656 16.9852C5.37995 16.717 5.26865 16.3327 5.20725 15.5811C5.14421 14.8095 5.14287 13.8113 5.14287 12.3429V11.6572C5.14287 10.1887 5.14421 9.19056 5.20725 8.41896C5.26865 7.66733 5.37995 7.28299 5.51656 7.01487C5.84528 6.36978 6.36978 5.84528 7.01487 5.51656C7.28299 5.37995 7.66733 5.26865 8.41896 5.20725C9.19056 5.14421 10.1887 5.14287 11.6572 5.14287Z" fill="white"/>
<defs>
<radialGradient id="paint0_radial_23_65" cx="0" cy="0" r="1" gradientUnits="userSpaceOnUse" gradientTransform="translate(8.57143 18) rotate(-55.3758) scale(21.8739)">
<stop stop-color="#B13589"/>
<stop offset="0.79309" stop-color="#C62F94"/>
<stop offset="1" stop-color="#8A3AC8"/>
</radialGradient>
<radialGradient id="paint1_radial_23_65" cx="0" cy="0" r="1" gradientUnits="userSpaceOnUse" gradientTransform="translate(7.71429 24.8571) rotate(-65.1363) scale(19.3665)">
<stop stop-color="#E0E8B7"/>
<stop offset="0.444662" stop-color="#FB8A2E"/>
<stop offset="0.71474" stop-color="#E2425C"/>
<stop offset="1" stop-color="#E2425C" stop-opacity="0"/>
</radialGradient>
<radialGradient id="paint2_radial_23_65" cx="0" cy="0" r="1" gradientUnits="userSpaceOnUse" gradientTransform="translate(-1.28571 0.857143) rotate(-8.1301) scale(33.3351 7.13002)">
<stop offset="0.156701" stop-color="#406ADC"/>
<stop offset="0.467799" stop-color="#6A45BE"/>
<stop offset="1" stop-color="#6A45BE" stop-opacity="0"/>
</radialGradient>
</defs>
</svg>
