<svg width="15" height="12" viewBox="0 0 15 12" fill="none" xmlns="http://www.w3.org/2000/svg">
<path d="M14.9083 5.66514C14.9083 5.90233 14.814 6.12989 14.6463 6.29763C14.4785 6.46536 14.251 6.55963 14.0138 6.55963H0.894495C0.657261 6.55963 0.429739 6.46536 0.261994 6.29763C0.0942393 6.12989 0 5.90233 0 5.66514C0 5.4279 0.0942393 5.20038 0.261994 5.03263C0.429739 4.86488 0.657261 4.77064 0.894495 4.77064H14.0138C14.251 4.77064 14.4785 4.86488 14.6463 5.03263C14.814 5.20038 14.9083 5.4279 14.9083 5.66514ZM0.894495 1.78899H14.0138C14.251 1.78899 14.4785 1.69475 14.6463 1.527C14.814 1.35925 14.9083 1.13173 14.9083 0.894495C14.9083 0.657261 14.814 0.429739 14.6463 0.261994C14.4785 0.0942393 14.251 0 14.0138 0H0.894495C0.657261 0 0.429739 0.0942393 0.261994 0.261994C0.0942393 0.429739 0 0.657261 0 0.894495C0 1.13173 0.0942393 1.35925 0.261994 1.527C0.429739 1.69475 0.657261 1.78899 0.894495 1.78899ZM14.0138 9.54128H0.894495C0.657261 9.54128 0.429739 9.63555 0.261994 9.80329C0.0942393 9.97102 0 10.1986 0 10.4358C0 10.673 0.0942393 10.9005 0.261994 11.0683C0.429739 11.236 0.657261 11.3303 0.894495 11.3303H14.0138C14.251 11.3303 14.4785 11.236 14.6463 11.0683C14.814 10.9005 14.9083 10.673 14.9083 10.4358C14.9083 10.1986 14.814 9.97102 14.6463 9.80329C14.4785 9.63555 14.251 9.54128 14.0138 9.54128Z" fill="#ffffff"/>
</svg>
