<svg width="24" height="22" viewBox="0 0 24 22" fill="none" xmlns="http://www.w3.org/2000/svg">
<path d="M22.5 6.28571H1.5C0.671578 6.28571 0 5.58216 0 4.71429V1.57143C0 0.703558 0.671578 0 1.5 0H22.5C23.3284 0 24 0.703558 24 1.57143V4.71429C24 5.58216 23.3284 6.28571 22.5 6.28571ZM20.25 1.96429C19.6287 1.96429 19.125 2.49194 19.125 3.14286C19.125 3.79377 19.6287 4.32143 20.25 4.32143C20.8713 4.32143 21.375 3.79377 21.375 3.14286C21.375 2.49194 20.8713 1.96429 20.25 1.96429ZM17.25 1.96429C16.6287 1.96429 16.125 2.49194 16.125 3.14286C16.125 3.79377 16.6287 4.32143 17.25 4.32143C17.8713 4.32143 18.375 3.79377 18.375 3.14286C18.375 2.49194 17.8713 1.96429 17.25 1.96429ZM22.5 14.1429H1.5C0.671578 14.1429 0 13.4393 0 12.5714V9.42857C0 8.5607 0.671578 7.85714 1.5 7.85714H22.5C23.3284 7.85714 24 8.5607 24 9.42857V12.5714C24 13.4393 23.3284 14.1429 22.5 14.1429ZM20.25 9.82143C19.6287 9.82143 19.125 10.3491 19.125 11C19.125 11.6509 19.6287 12.1786 20.25 12.1786C20.8713 12.1786 21.375 11.6509 21.375 11C21.375 10.3491 20.8713 9.82143 20.25 9.82143ZM17.25 9.82143C16.6287 9.82143 16.125 10.3491 16.125 11C16.125 11.6509 16.6287 12.1786 17.25 12.1786C17.8713 12.1786 18.375 11.6509 18.375 11C18.375 10.3491 17.8713 9.82143 17.25 9.82143ZM22.5 22H1.5C0.671578 22 0 21.2964 0 20.4286V17.2857C0 16.4178 0.671578 15.7143 1.5 15.7143H22.5C23.3284 15.7143 24 16.4178 24 17.2857V20.4286C24 21.2964 23.3284 22 22.5 22ZM20.25 17.6786C19.6287 17.6786 19.125 18.2062 19.125 18.8571C19.125 19.5081 19.6287 20.0357 20.25 20.0357C20.8713 20.0357 21.375 19.5081 21.375 18.8571C21.375 18.2062 20.8713 17.6786 20.25 17.6786ZM17.25 17.6786C16.6287 17.6786 16.125 18.2062 16.125 18.8571C16.125 19.5081 16.6287 20.0357 17.25 20.0357C17.8713 20.0357 18.375 19.5081 18.375 18.8571C18.375 18.2062 17.8713 17.6786 17.25 17.6786Z" fill="#6B00EE"/>
</svg>
